<svg width="14" height="21" viewBox="0 0 14 21" fill="none" xmlns="http://www.w3.org/2000/svg">
<path d="M4.72357 4.90124L3.93023 4.66699L3.07031 7.47796L3.81003 7.86111L4.72357 4.90124Z" fill="#D11B32"/>
<path d="M11.6714 7.41441L10.8744 7.19287C10.8744 7.22737 10.3473 9.01964 9.78516 10.9463C10.0317 11.077 10.2783 11.2084 10.5249 11.3403C11.1129 9.34831 11.6603 7.45072 11.6714 7.41441Z" fill="#D11B32"/>
<path d="M3.21117 6.1978L8.37437 7.76671L9.25648 6.37394L9.24538 8.06815L10.9911 8.50396C11.1167 8.53951 11.2485 8.54852 11.3779 8.53038C11.5073 8.51224 11.6313 8.46738 11.7417 8.39874C11.8522 8.33011 11.9466 8.23926 12.0186 8.13219C12.0907 8.02513 12.1388 7.90428 12.1599 7.77761C12.4077 6.12517 12.4335 2.92923 9.10299 1.89419C5.51168 0.788322 3.5237 4.03873 2.8672 5.39337C2.83082 5.46769 2.81091 5.54874 2.80878 5.63117C2.80666 5.7136 2.82237 5.79554 2.85488 5.87157C2.88739 5.9476 2.93596 6.01599 2.99737 6.07223C3.05879 6.12846 3.13166 6.17126 3.21117 6.1978Z" fill="#FA3951"/>
<path d="M8.37866 4.02048C8.43044 3.98053 8.47483 3.93876 8.52661 3.90608C8.63342 3.83402 8.75552 3.78676 8.88368 3.76789C9.01183 3.74901 9.14268 3.75901 9.26632 3.79712C9.46011 3.84864 9.63112 3.96164 9.75268 4.11853C9.88903 4.29526 9.9548 4.51486 9.93761 4.73593C9.91837 4.9945 9.80478 5.23758 9.61768 5.42051C9.44227 5.60074 9.23954 5.75326 9.01667 5.87266C8.63259 6.08126 8.22394 6.24286 7.79984 6.35387C7.7938 6.35778 7.78673 6.35986 7.7795 6.35986C7.77227 6.35986 7.76519 6.35778 7.75915 6.35387C7.40857 6.02905 7.10549 5.65811 6.85855 5.25164C6.73593 5.05135 6.64665 4.83312 6.59411 4.60519C6.54982 4.41756 6.55877 4.22161 6.62 4.03864C6.67061 3.8743 6.76765 3.72743 6.89983 3.61506C7.03202 3.50269 7.19395 3.42942 7.36683 3.40376C7.53971 3.37809 7.71645 3.40109 7.87656 3.47007C8.03667 3.53905 8.17358 3.6512 8.27141 3.79349C8.31889 3.86326 8.35507 3.93983 8.37866 4.02048Z" fill="white"/>
<path opacity="0.37" d="M7.69141 2.44995C8.58242 2.45043 9.4368 2.7982 10.0668 3.41687C10.6969 4.03553 11.0511 4.87447 11.0516 5.74939" fill="white"/>
<path fill-rule="evenodd" clip-rule="evenodd" d="M8.49079 15.3348C8.72196 14.5903 9.27304 12.7109 9.78529 10.9459C10.0356 11.0766 10.2803 11.2079 10.5195 11.3399C10.355 11.8995 10.1892 12.4663 10.0326 13.0012C9.70864 14.1084 9.42451 15.0793 9.27489 15.5691C8.76079 17.2433 7.85649 17.7045 7.24068 17.8135C7.04123 18.2091 6.74123 18.5474 6.36967 18.7959C5.74611 19.202 4.95151 19.3071 4 19.1102V18.2792C4.80859 18.4797 5.45326 18.428 5.91844 18.124C6.06692 18.0249 6.19755 17.9021 6.30494 17.7608L6.26056 17.7481C5.8493 17.6127 5.47146 17.3943 5.15137 17.1069C4.83128 16.8195 4.57602 16.4695 4.40203 16.0793C4.07471 15.3257 4.19491 14.5885 4.72195 14.1091C4.93403 13.9012 5.20891 13.7662 5.50555 13.7243C5.80218 13.6824 6.10467 13.7359 6.36782 13.8767C7.1926 14.2834 7.77882 15.3657 7.67526 16.2918V16.319C7.65677 16.4897 7.63088 16.6531 7.59944 16.8039C8.05067 16.4806 8.32806 15.8687 8.49079 15.3348ZM1.72202 15.8047C1.63959 14.909 1.89525 14.1162 1.9018 14.0982L3.81766 7.86069L3.07794 7.47754L1.11955 13.8494C1.10187 13.9015 0.817749 14.7706 0.896611 15.8047H1.72202ZM5.17133 15.7615C5.41359 16.3226 6.03495 16.9055 6.69514 17.0127C6.77546 16.7608 6.82997 16.5016 6.85788 16.2391V16.2028C6.92815 15.6181 6.51761 14.8554 6.00351 14.603C5.96056 14.5817 5.91605 14.5634 5.87036 14.5485C5.76905 14.5177 5.66085 14.516 5.55859 14.5437C5.45633 14.5714 5.36429 14.6272 5.29338 14.7047C4.93092 15.0352 5.06222 15.5091 5.17133 15.7615Z" fill="#FA3951"/>
</svg>
